<svg xmlns="http://www.w3.org/2000/svg" viewBox="0 0 500 500" width="500" height="500">
  <rect width="500" height="500" fill="#000000"/>
  <g id="logo">
    <polygon fill="#00F49D" points="376,220 376,280 194,371 194,311"/>
    <polygon fill="#FE95C6" points="134,220 134,280 315,189 315,129"/>
    <polygon fill="#FE95C6" points="134,220 134,280 315,371 315,311"/>
    <polygon fill="#00F49D" points="194,129 194,189 376,280 376,220"/>
    <g stroke="#000" stroke-opacity="0.15" stroke-width="0.8" fill="none">
      <line x1="255" y1="159" x2="255" y2="219"/><line x1="315" y1="190" x2="315" y2="250"/>
      <line x1="194" y1="189" x2="255" y2="159"/><line x1="255" y1="219" x2="315" y2="190"/>
      <line x1="315" y1="250" x2="376" y2="220"/><line x1="194" y1="129" x2="255" y2="219"/>
      <line x1="255" y1="159" x2="315" y2="250"/><line x1="315" y1="190" x2="376" y2="280"/>
    </g>
    <g stroke="#000" stroke-opacity="0.15" stroke-width="0.8" fill="none">
      <line x1="255" y1="281" x2="255" y2="341"/><line x1="315" y1="251" x2="315" y2="311"/>
      <line x1="376" y1="220" x2="315" y2="311"/><line x1="315" y1="251" x2="255" y2="341"/>
      <line x1="255" y1="281" x2="194" y2="371"/><line x1="376" y1="280" x2="315" y2="251"/>
      <line x1="315" y1="311" x2="255" y2="281"/><line x1="255" y1="341" x2="194" y2="311"/>
    </g>
    <g stroke="#000" stroke-opacity="0.15" stroke-width="0.8" fill="none">
      <line x1="194" y1="251" x2="194" y2="311"/><line x1="255" y1="281" x2="255" y2="341"/>
      <line x1="134" y1="280" x2="194" y2="251"/><line x1="194" y1="311" x2="255" y2="281"/>
      <line x1="255" y1="341" x2="315" y2="311"/><line x1="134" y1="220" x2="194" y2="311"/>
      <line x1="194" y1="251" x2="255" y2="341"/><line x1="255" y1="281" x2="315" y2="371"/>
    </g>
    <g stroke="#000" stroke-opacity="0.15" stroke-width="0.8" fill="none">
      <line x1="194" y1="190" x2="194" y2="250"/><line x1="255" y1="159" x2="255" y2="219"/>
      <line x1="134" y1="220" x2="194" y2="190"/><line x1="194" y1="250" x2="255" y2="219"/>
      <line x1="255" y1="159" x2="315" y2="189"/><line x1="134" y1="280" x2="194" y2="190"/>
      <line x1="194" y1="250" x2="255" y2="159"/><line x1="255" y1="219" x2="315" y2="129"/>
    </g>
  </g>
</svg>
