<?xml version="1.0" encoding="UTF-8" standalone="no"?>
<svg
   viewBox="0 0 512 512"
   width="512"
   height="512"
   role="img"
   aria-labelledby="logo-title logo-desc"
   version="1.1"
   id="svg13"
   sodipodi:docname="icusd-logo_v3.svg"
   inkscape:version="1.4.3 (0d15f75, 2025-12-25)"
   xml:space="preserve"
   inkscape:export-filename="icusd-logo_v3.webp"
   inkscape:export-xdpi="96"
   inkscape:export-ydpi="96"
   xmlns:inkscape="http://www.inkscape.org/namespaces/inkscape"
   xmlns:sodipodi="http://sodipodi.sourceforge.net/DTD/sodipodi-0.dtd"
   xmlns:xlink="http://www.w3.org/1999/xlink"
   xmlns="http://www.w3.org/2000/svg"
   xmlns:svg="http://www.w3.org/2000/svg"
   xmlns:rdf="http://www.w3.org/1999/02/22-rdf-syntax-ns#"
   xmlns:cc="http://creativecommons.org/ns#"
   xmlns:dc="http://purl.org/dc/elements/1.1/"><sodipodi:namedview
     id="namedview13"
     pagecolor="#ffffff"
     bordercolor="#000000"
     borderopacity="0.25"
     inkscape:showpageshadow="true"
     inkscape:pageopacity="0.0"
     inkscape:pagecheckerboard="0"
     inkscape:deskcolor="#252525"
     inkscape:zoom="0.57821593"
     inkscape:cx="109.82056"
     inkscape:cy="460.90048"
     inkscape:window-width="1512"
     inkscape:window-height="916"
     inkscape:window-x="0"
     inkscape:window-y="38"
     inkscape:window-maximized="0"
     inkscape:current-layer="svg13"
     showborder="true"
     showguides="false"
     inkscape:export-bgcolor="#8f8f8f00" /><title
     id="logo-title">icUSD Token Logo - Emerald</title><desc
     id="logo-desc">A dark coin with an emerald green dollar sign, representing the icUSD stablecoin</desc><defs
     id="defs9"><pattern
       inkscape:collect="always"
       xlink:href="#Wave"
       preserveAspectRatio="none"
       id="pattern119"
       patternTransform="matrix(2.3552,0,0,4.8128,-6.144,-6.144)"
       x="0"
       y="0" /><pattern
       patternUnits="userSpaceOnUse"
       width="24"
       height="10"
       preserveAspectRatio="xMidYMid"
       id="Wave"
       style="fill:#111635"
       x="0"
       y="0"
       inkscape:collect="always"
       inkscape:isstock="true"
       inkscape:label="Wave"><g
         id="wave_g"
         style="display:inline"><path
           d="M 12,-2 C 9.1666695,-2 7.1679672,-0.56445187 5.4179687,0.68554687 3.6679703,1.9355456 2.1666645,3 0,3 V 5 C 2.8333305,5 4.8320328,3.5644519 6.5820312,2.3144531 8.3320297,1.0644544 9.8333355,0 12,0 14.166665,0 15.667971,1.0644544 17.417969,2.3144531 19.167967,3.5644519 21.166669,5 24,5 V 3 C 21.833335,3 20.332029,1.9355456 18.582031,0.68554687 16.832033,-0.56445189 14.833331,-2 12,-2 Z"
           id="path3" /><path
           d="M 12,3 C 9.1666695,3 7.1679672,4.4355481 5.4179687,5.6855469 3.6679703,6.9355456 2.1666645,8 0,8 v 2 C 2.8333305,10 4.8320328,8.5644519 6.5820312,7.3144531 8.3320297,6.0644544 9.8333355,5 12,5 14.166665,5 15.667971,6.0644544 17.417969,7.3144531 19.167967,8.5644519 21.166669,10 24,10 V 8 C 21.833335,8 20.332029,6.9355456 18.582031,5.6855469 16.832033,4.4355481 14.833331,3 12,3 Z"
           id="path4" /><path
           d="M 12,8 C 9.1666695,8 7.1679672,9.4355481 5.4179687,10.685547 3.6679703,11.935546 2.1666645,13 0,13 v 2 C 2.8333305,15 4.8320328,13.564452 6.5820312,12.314453 8.3320297,11.064454 9.8333355,10 12,10 c 2.166665,0 3.667971,1.064454 5.417969,2.314453 C 19.167967,13.564452 21.166669,15 24,15 V 13 C 21.833335,13 20.332029,11.935546 18.582031,10.685547 16.832033,9.4355481 14.833331,8 12,8 Z"
           id="path118" /></g></pattern><linearGradient
       id="emeraldGrad"
       x1="0%"
       y1="0%"
       x2="0%"
       y2="100%"><stop
         offset="0%"
         stop-color="#6ee7b7"
         id="stop7" /><stop
         offset="50%"
         stop-color="#34d399"
         id="stop8" /><stop
         offset="100%"
         stop-color="#10b981"
         id="stop9" /></linearGradient></defs><!-- Outer rim --><!-- Inner rim --><!-- Coin face --><circle
     cx="256"
     cy="256"
     r="255.43803"
     fill="#2de2a6"
     id="circle55"
     style="display:inline;fill:#2de2a6;fill-opacity:1;fill-rule:evenodd;stroke:#111635;stroke-width:1.12393;stroke-dasharray:none;stroke-opacity:1" /><circle
     cx="256"
     cy="256"
     r="225.28"
     fill="#7c3aed"
     id="circle11"
     style="display:inline;opacity:1;mix-blend-mode:normal;fill:#7c3aed;fill-opacity:1;stroke:none;stroke-width:5.12;stroke-dasharray:none;stroke-opacity:1" /><circle
     cx="256"
     cy="256"
     r="225.28"
     fill="#111635"
     id="circle12"
     style="display:inline;opacity:0.522;mix-blend-mode:normal;fill:#111635;fill-opacity:1;stroke:none;stroke-width:5.12;stroke-dasharray:none;stroke-opacity:1" /><circle
     cx="256"
     cy="256"
     r="225.28"
     fill="url(#pattern119)"
     id="circle93"
     style="display:inline;opacity:1;mix-blend-mode:normal;fill:url(#pattern119);stroke:#111635;stroke-width:1.1264;stroke-dasharray:none;stroke-opacity:1" /><!-- Dollar sign S-curve - emerald --><!-- Vertical bar --><!-- Subtle highlight --><metadata
     id="metadata14"><rdf:RDF><cc:Work
         rdf:about=""><dc:title>icUSD Token Logo - Emerald</dc:title></cc:Work></rdf:RDF></metadata><g
     id="g121"
     transform="matrix(1.024,0,0,1.024,-6.935091,-7.7706485)"><g
       id="g18"
       transform="rotate(45,256,258.36107)"
       style="display:inline"><path
         style="display:inline;fill:none;fill-opacity:0.765281;fill-rule:evenodd;stroke:#111635;stroke-width:12.2;stroke-linecap:round;stroke-linejoin:miter;stroke-miterlimit:0.8;stroke-dasharray:none;stroke-opacity:1;paint-order:normal"
         id="path79"
         sodipodi:type="arc"
         sodipodi:cx="252.29593"
         sodipodi:cy="-259.65125"
         sodipodi:rx="179.95309"
         sodipodi:ry="181.34265"
         sodipodi:start="4.2760567"
         sodipodi:end="5.1487213"
         sodipodi:arc-type="arc"
         d="m 176.24447,-424.0035 a 179.95309,181.34265 0 0 1 152.10292,0"
         transform="rotate(90.823131)"
         inkscape:transform-center-x="-19.195711"
         inkscape:transform-center-y="-13.042644"
         sodipodi:open="true" /><path
         style="display:inline;fill:none;fill-opacity:0.765281;fill-rule:evenodd;stroke:#111635;stroke-width:12.2;stroke-linecap:round;stroke-linejoin:round;stroke-miterlimit:0.8;stroke-dasharray:none;stroke-opacity:1;paint-order:normal"
         id="path78"
         sodipodi:type="arc"
         sodipodi:cx="259.65125"
         sodipodi:cy="252.29593"
         sodipodi:rx="179.95309"
         sodipodi:ry="181.34265"
         sodipodi:start="4.2760567"
         sodipodi:end="5.1487213"
         sodipodi:arc-type="arc"
         d="m 183.59979,87.943669 a 179.95309,181.34265 0 0 1 152.10292,3e-6"
         transform="matrix(0.01436585,0.99989681,0.99989681,-0.01436585,0,0)"
         inkscape:transform-center-x="-19.195711"
         inkscape:transform-center-y="-13.042644"
         sodipodi:open="true" /></g><g
       id="g19"
       transform="rotate(-45,256.77255,256.49598)"
       style="display:inline"><path
         style="display:inline;fill:none;fill-opacity:0.765281;fill-rule:evenodd;stroke:#111635;stroke-width:12.2;stroke-linecap:round;stroke-linejoin:round;stroke-miterlimit:0.8;stroke-dasharray:none;stroke-opacity:1;paint-order:normal"
         id="path18"
         sodipodi:type="arc"
         sodipodi:cx="259.65125"
         sodipodi:cy="252.29593"
         sodipodi:rx="179.95309"
         sodipodi:ry="181.34265"
         sodipodi:start="4.2760567"
         sodipodi:end="5.1487213"
         sodipodi:arc-type="arc"
         d="m 183.59979,87.943669 a 179.95309,181.34265 0 0 1 152.10292,3e-6"
         transform="matrix(0.01436585,0.99989681,0.99989681,-0.01436585,0,0)"
         inkscape:transform-center-x="-19.195711"
         inkscape:transform-center-y="-13.042644"
         sodipodi:open="true" /><path
         style="display:inline;fill:none;fill-opacity:0.765281;fill-rule:evenodd;stroke:#111635;stroke-width:12.2;stroke-linecap:round;stroke-linejoin:miter;stroke-miterlimit:0.8;stroke-dasharray:none;stroke-opacity:1;paint-order:normal"
         id="path19"
         sodipodi:type="arc"
         sodipodi:cx="252.29593"
         sodipodi:cy="-259.65125"
         sodipodi:rx="179.95309"
         sodipodi:ry="181.34265"
         sodipodi:start="4.2760567"
         sodipodi:end="5.1487213"
         sodipodi:arc-type="arc"
         d="m 176.24447,-424.0035 a 179.95309,181.34265 0 0 1 152.10292,0"
         transform="rotate(90.823131)"
         inkscape:transform-center-x="-19.195711"
         inkscape:transform-center-y="-13.042644"
         sodipodi:open="true" /></g></g><g
     id="g125"
     transform="matrix(1.024,0,0,1.024,-6.935091,-7.7706485)"><g
       id="g122"
       transform="rotate(45,256,258.36107)"
       style="display:inline"><path
         style="display:inline;fill:none;fill-opacity:0.765281;fill-rule:evenodd;stroke:#2de2a6;stroke-width:9.9;stroke-linecap:round;stroke-linejoin:round;stroke-miterlimit:0.8;stroke-dasharray:none;stroke-opacity:1;paint-order:normal"
         id="path121"
         sodipodi:type="arc"
         sodipodi:cx="259.65125"
         sodipodi:cy="252.29593"
         sodipodi:rx="179.95309"
         sodipodi:ry="181.34265"
         sodipodi:start="4.2760567"
         sodipodi:end="5.1487213"
         sodipodi:arc-type="arc"
         d="m 183.59979,87.943669 a 179.95309,181.34265 0 0 1 152.10292,3e-6"
         transform="matrix(0.01436585,0.99989681,0.99989681,-0.01436585,0,0)"
         inkscape:transform-center-x="-19.195711"
         inkscape:transform-center-y="-13.042644"
         sodipodi:open="true" /><path
         style="display:inline;fill:none;fill-opacity:0.765281;fill-rule:evenodd;stroke:#2de2a6;stroke-width:9.9;stroke-linecap:round;stroke-linejoin:miter;stroke-miterlimit:0.8;stroke-dasharray:none;stroke-opacity:1;paint-order:normal"
         id="path122"
         sodipodi:type="arc"
         sodipodi:cx="252.29593"
         sodipodi:cy="-259.65125"
         sodipodi:rx="179.95309"
         sodipodi:ry="181.34265"
         sodipodi:start="4.2760567"
         sodipodi:end="5.1487213"
         sodipodi:arc-type="arc"
         d="m 176.24447,-424.0035 a 179.95309,181.34265 0 0 1 152.10292,0"
         transform="rotate(90.823131)"
         inkscape:transform-center-x="-19.195711"
         inkscape:transform-center-y="-13.042644"
         sodipodi:open="true" /></g><g
       id="g124"
       transform="rotate(-45,256.77255,256.49598)"
       style="display:inline"><path
         style="display:inline;fill:none;fill-opacity:0.765281;fill-rule:evenodd;stroke:#2de2a6;stroke-width:9.9;stroke-linecap:round;stroke-linejoin:round;stroke-miterlimit:0.8;stroke-dasharray:none;stroke-opacity:1;paint-order:normal"
         id="path123"
         sodipodi:type="arc"
         sodipodi:cx="259.65125"
         sodipodi:cy="252.29593"
         sodipodi:rx="179.95309"
         sodipodi:ry="181.34265"
         sodipodi:start="4.2760567"
         sodipodi:end="5.1487213"
         sodipodi:arc-type="arc"
         d="m 183.59979,87.943669 a 179.95309,181.34265 0 0 1 152.10292,3e-6"
         transform="matrix(0.01436585,0.99989681,0.99989681,-0.01436585,0,0)"
         inkscape:transform-center-x="-19.195711"
         inkscape:transform-center-y="-13.042644"
         sodipodi:open="true" /><path
         style="display:inline;fill:none;fill-opacity:0.765281;fill-rule:evenodd;stroke:#2de2a6;stroke-width:9.9;stroke-linecap:round;stroke-linejoin:miter;stroke-miterlimit:0.8;stroke-dasharray:none;stroke-opacity:1;paint-order:normal"
         id="path124"
         sodipodi:type="arc"
         sodipodi:cx="252.29593"
         sodipodi:cy="-259.65125"
         sodipodi:rx="179.95309"
         sodipodi:ry="181.34265"
         sodipodi:start="4.2760567"
         sodipodi:end="5.1487213"
         sodipodi:arc-type="arc"
         d="m 176.24447,-424.0035 a 179.95309,181.34265 0 0 1 152.10292,0"
         transform="rotate(90.823131)"
         inkscape:transform-center-x="-19.195711"
         inkscape:transform-center-y="-13.042644"
         sodipodi:open="true" /></g></g><path
     d="m 238.72851,401.49346 v -38.6731 q -30.03736,-2.2528 -55.56911,-17.64695 l 14.64321,-30.41282 q 13.14135,8.26027 26.65816,12.01494 13.51681,3.37921 25.15629,3.37921 18.02242,0 27.4091,-6.75841 9.38667,-7.13387 9.38667,-19.14882 0,-10.88854 -7.8848,-17.64695 -7.88481,-6.7584 -25.53177,-12.39041 l -17.27148,-5.632 q -22.90349,-7.50934 -38.29764,-21.02615 -15.01867,-13.89228 -15.01867,-38.6731 0,-27.40909 17.27148,-43.17871 17.27148,-15.76961 44.3051,-17.64695 v -37.5467 h 28.91097 v 37.5467 q 10.51308,1.50187 21.77709,4.88107 11.26401,3.00374 22.52802,9.38668 l -11.26401,31.16376 q -11.264,-6.00747 -23.65442,-9.38667 -12.01495,-3.75467 -24.02989,-3.75467 -13.89229,0 -23.27897,6.38293 -9.0112,6.00748 -9.0112,18.02242 0,12.39041 9.76214,18.39788 10.13761,5.63201 22.90348,9.76214 l 16.52056,5.63201 q 54.44272,16.89601 54.44272,62.70299 0,24.40535 -16.52056,40.9259 -16.52055,16.52055 -45.43151,20.65068 v 38.6731 z"
     id="text125"
     style="font-weight:600;font-size:366.667px;font-family:'Mukta Mahee';-inkscape-font-specification:'Mukta Mahee, Semi-Bold';display:inline;fill:#2de2a6;stroke:#111635;stroke-width:1.1264"
     aria-label="$" /><g
     inkscape:groupmode="layer"
     id="layer2"
     inkscape:label="Layer 2" /></svg>
