<?xml version="1.0" encoding="UTF-8" standalone="no"?>
<!-- Created with Inkscape (http://www.inkscape.org/) -->

<svg
   width="2000"
   height="2000"
   viewBox="0 0 2000 2000"
   version="1.1"
   id="svg1"
   xml:space="preserve"
   inkscape:version="1.4.3 (0d15f75, 2025-12-25)"
   sodipodi:docname="rumilogo-vector-v2_NEW_inset2.svg"
   inkscape:export-filename="rumilogo-vector-v2_inset2.png"
   inkscape:export-xdpi="96"
   inkscape:export-ydpi="96"
   xmlns:inkscape="http://www.inkscape.org/namespaces/inkscape"
   xmlns:sodipodi="http://sodipodi.sourceforge.net/DTD/sodipodi-0.dtd"
   xmlns="http://www.w3.org/2000/svg"
   xmlns:svg="http://www.w3.org/2000/svg"><sodipodi:namedview
     id="namedview1"
     pagecolor="#ffffff"
     bordercolor="#000000"
     borderopacity="0.25"
     inkscape:showpageshadow="2"
     inkscape:pageopacity="0.0"
     inkscape:pagecheckerboard="0"
     inkscape:deskcolor="#d1d1d1"
     inkscape:document-units="px"
     showgrid="true"
     inkscape:zoom="0.10318154"
     inkscape:cx="2471.3723"
     inkscape:cy="654.18678"
     inkscape:window-width="1083"
     inkscape:window-height="816"
     inkscape:window-x="176"
     inkscape:window-y="99"
     inkscape:window-maximized="0"
     inkscape:current-layer="layer1"><inkscape:grid
       type="axonomgrid"
       id="grid2"
       units="px"
       originx="0"
       originy="-1.9428903e-16"
       spacingx="0.99999999"
       spacingy="250"
       empcolor="#0099e5"
       empopacity="0.30196078"
       color="#0099e5"
       opacity="0.14901961"
       empspacing="0"
       dotted="false"
       gridanglex="26.57"
       gridanglez="26.57"
       enabled="true"
       visible="false" /></sodipodi:namedview><defs
     id="defs1"><linearGradient
       id="swatch7"
       inkscape:swatch="solid"><stop
         style="stop-color:#000000;stop-opacity:1;"
         offset="0"
         id="stop7" /></linearGradient></defs><g
     inkscape:label="Layer 1"
     inkscape:groupmode="layer"
     id="layer1"><path
       id="path8"
       style="fill:#f46aae;fill-opacity:1;stroke:none;stroke-width:3;stroke-dasharray:none;stroke-opacity:1"
       d="M 4,1243.5273 C 166.31576,1162.3516 328.63151,1081.1758 490.94727,1000 328.63151,918.82422 166.31576,837.64844 4,756.47266 4,918.82422 4,1081.1758 4,1243.5273 Z" /><path
       id="path8-3"
       style="fill:#f46aae;fill-opacity:1;stroke:none;stroke-width:3;stroke-dasharray:none;stroke-opacity:1"
       d="M 503.89258,1493.5273 C 666.20768,1412.3516 828.52279,1331.1758 990.83789,1250 828.52279,1168.8242 666.20768,1087.6484 503.89258,1006.4727 c 0,162.3515 0,324.7031 0,487.0546 z" /><path
       id="path8-7"
       style="fill:#f46aae;fill-opacity:1;stroke:none;stroke-width:3;stroke-dasharray:none;stroke-opacity:1"
       d="m 1003.7832,1743.5273 c 162.3158,-81.1757 324.6315,-162.3515 486.9473,-243.5273 -162.3158,-81.1758 -324.6315,-162.3516 -486.9473,-243.5273 0,162.3515 0,324.7031 0,487.0546 z" /><path
       id="path8-78"
       style="fill:#f46aae;fill-opacity:1;stroke:none;stroke-width:3;stroke-dasharray:none;stroke-opacity:1"
       d="M 503.89258,993.52734 C 666.20768,912.35156 828.52279,831.17578 990.83789,750 828.52279,668.82422 666.20768,587.64844 503.89258,506.47266 c 0,162.35156 0,324.70312 0,487.05468 z" /><path
       id="path8-78-2"
       style="fill:#f46aae;fill-opacity:1;stroke:none;stroke-width:3;stroke-dasharray:none;stroke-opacity:1"
       d="M 8.9453125,750 C 171.26107,831.17578 333.57682,912.35156 495.89258,993.52734 c 0,-162.35156 0,-324.70312 0,-487.05468 C 333.57682,587.64844 171.26107,668.82422 8.9453125,750 Z" /><path
       id="path8-78-2-8"
       style="fill:#f46aae;fill-opacity:1;stroke:none;stroke-width:3;stroke-dasharray:none;stroke-opacity:1"
       d="m 8.9453125,1250 c 162.3157575,81.1758 324.6315075,162.3516 486.9472675,243.5273 0,-162.3515 0,-324.7031 0,-487.0546 C 333.57682,1087.6484 171.26107,1168.8242 8.9453125,1250 Z" /><path
       id="path8-78-2-9"
       style="fill:#f46aae;fill-opacity:1;stroke:none;stroke-width:3;stroke-dasharray:none;stroke-opacity:1"
       d="m 508.83789,1500 c 162.3151,81.1758 324.63021,162.3516 486.94531,243.5273 0,-162.3515 0,-324.7031 0,-487.0546 C 833.4681,1337.6484 671.15299,1418.8242 508.83789,1500 Z" /><path
       id="path8-78-2-3"
       style="fill:#f46aae;fill-opacity:1;stroke:none;stroke-width:3;stroke-dasharray:none;stroke-opacity:1"
       d="m 1008.7285,1750 c 162.3158,81.1758 324.6315,162.3516 486.9473,243.5273 0,-162.3515 0,-324.7031 0,-487.0546 C 1333.36,1587.6484 1171.0443,1668.8242 1008.7285,1750 Z" /><path
       id="path8-4"
       style="fill:#2de2a6;fill-opacity:1;stroke:none;stroke-width:3;stroke-dasharray:none;stroke-opacity:1"
       d="m 1508.6211,1000 c 162.3157,81.1758 324.6315,162.3516 486.9473,243.5273 0,-162.3515 0,-324.70308 0,-487.05464 C 1833.2526,837.64844 1670.9368,918.82422 1508.6211,1000 Z" /><path
       id="path8-3-0"
       style="fill:#2de2a6;fill-opacity:1;stroke:none;stroke-width:3;stroke-dasharray:none;stroke-opacity:1"
       d="m 1008.7285,750 c 162.3158,81.17578 324.6315,162.35156 486.9473,243.52734 0,-162.35156 0,-324.70312 0,-487.05468 C 1333.36,587.64844 1171.0443,668.82422 1008.7285,750 Z" /><path
       id="path8-7-6"
       style="fill:#2de2a6;fill-opacity:1;stroke:none;stroke-width:3;stroke-dasharray:none;stroke-opacity:1"
       d="m 508.83789,500 c 162.3151,81.17578 324.63021,162.35156 486.94531,243.52734 0,-162.35156 0,-324.70312 0,-487.05468 C 833.4681,337.64844 671.15299,418.82422 508.83789,500 Z" /><path
       id="path8-78-0"
       style="fill:#2de2a6;fill-opacity:1;stroke:none;stroke-width:3;stroke-dasharray:none;stroke-opacity:1"
       d="m 1008.7285,1250 c 162.3158,81.1758 324.6315,162.3516 486.9473,243.5273 0,-162.3515 0,-324.7031 0,-487.0546 C 1333.36,1087.6484 1171.0443,1168.8242 1008.7285,1250 Z" /><path
       id="path8-78-2-4"
       style="fill:#2de2a6;fill-opacity:1;stroke:none;stroke-width:3;stroke-dasharray:none;stroke-opacity:1"
       d="m 1503.6758,1493.5273 c 162.3157,-81.1757 324.6315,-162.3515 486.9472,-243.5273 -162.3157,-81.1758 -324.6315,-162.3516 -486.9472,-243.5273 0,162.3515 0,324.7031 0,487.0546 z" /><path
       id="path8-78-2-8-0"
       style="fill:#2de2a6;fill-opacity:1;stroke:none;stroke-width:3;stroke-dasharray:none;stroke-opacity:1"
       d="M 1503.6758,993.52734 C 1665.9915,912.35156 1828.3073,831.17578 1990.623,750 1828.3073,668.82422 1665.9915,587.64844 1503.6758,506.47266 c 0,162.35156 0,324.70312 0,487.05468 z" /><path
       id="path8-78-2-9-5"
       style="fill:#2de2a6;fill-opacity:1;stroke:none;stroke-width:3;stroke-dasharray:none;stroke-opacity:1"
       d="M 1003.7832,743.52734 C 1166.099,662.35156 1328.4147,581.17578 1490.7305,500 1328.4147,418.82422 1166.099,337.64844 1003.7832,256.47266 c 0,162.35156 0,324.70312 0,487.05468 z" /><path
       id="path8-78-2-3-6"
       style="fill:#2de2a6;fill-opacity:1;stroke:none;stroke-width:3;stroke-dasharray:none;stroke-opacity:1"
       d="M 503.89258,493.52734 C 666.20768,412.35156 828.52279,331.17578 990.83789,250 828.52279,168.82422 666.20768,87.648437 503.89258,6.4726562 c 0,162.3515638 0,324.7031238 0,487.0546838 z" /></g></svg>
